<?xml version="1.0" encoding="UTF-8" standalone="no"?>
<!-- Created with Inkscape (http://www.inkscape.org/) -->

<svg
   width="48"
   height="48"
   viewBox="0 0 48 48"
   version="1.1"
   id="svg1"
   inkscape:export-filename="heart-fill.svg"
   inkscape:export-xdpi="96"
   inkscape:export-ydpi="96"
   xmlns:inkscape="http://www.inkscape.org/namespaces/inkscape"
   xmlns:sodipodi="http://sodipodi.sourceforge.net/DTD/sodipodi-0.dtd"
   xmlns="http://www.w3.org/2000/svg"
   xmlns:svg="http://www.w3.org/2000/svg">
  <sodipodi:namedview
     id="namedview1"
     pagecolor="#ffffff"
     bordercolor="currentColor"
     borderopacity="0.25"
     inkscape:showpageshadow="2"
     inkscape:pageopacity="0.0"
     inkscape:pagecheckerboard="0"
     inkscape:deskcolor="#d1d1d1"
     inkscape:document-units="px"
     inkscape:zoom="11.821834"
     inkscape:cx="23.473515"
     inkscape:cy="24.911532"
     inkscape:window-width="1440"
     inkscape:window-height="900"
     inkscape:window-x="0"
     inkscape:window-y="0"
     inkscape:window-maximized="0"
     inkscape:current-layer="svg1">
    <inkscape:page
       x="0"
       y="0"
       width="48"
       height="48"
       id="page2"
       margin="0"
       bleed="0" />
  </sodipodi:namedview>
  <defs
     id="defs1" />
  <g
     inkscape:label="Shelfspace-Icons"
     inkscape:groupmode="layer"
     id="layer1">
    <g
       inkscape:groupmode="layer"
       id="layer2"
       inkscape:label="Heart"
       style="display:none">
      <path
         id="rect1"
         style="display:inline;fill:currentColor;stroke:currentColor;stroke-width:2.75917;stroke-dasharray:none;stroke-opacity:1"
         d="m 16.584802,10.083174 a 8.6958913,8.6958422 0 0 0 -6.148266,2.546237 l -0.0185,0.0185 a 8.6958913,8.6958422 0 0 0 10e-7,12.298073 l 1.265411,1.265412 11.100479,11.100479 a 1.7193245,1.7193147 0 0 1 0.0015,0.0015 l 0.186499,0.186497 a 1.4544498,1.4544417 0 0 0 2.056102,0 l 0.188042,-0.18804 11.100477,-11.100481 1.265412,-1.265411 a 8.6958913,8.6958422 0 0 0 1e-6,-12.298074 l -0.0185,-0.0185 a 8.6958913,8.6958422 0 0 0 -12.298075,2e-6 l -1.26534,1.265474 -1.265414,-1.265412 a 8.6958913,8.6958422 0 0 0 -6.149829,-2.546258 z"
         inkscape:label="Heart"
         inkscape:export-filename="heart-line.svg"
         inkscape:export-xdpi="96"
         inkscape:export-ydpi="96" />
    </g>
    <g
       inkscape:groupmode="layer"
       id="layer3"
       inkscape:label="Comment"
       style="display:none;fill:none"
       transform="matrix(0.74468107,0,0,0.74468107,6.1276544,6.1276545)"
       inkscape:export-filename="comment-line.svg"
       inkscape:export-xdpi="96"
       inkscape:export-ydpi="96">
      <path
         id="path4"
         style="display:inline;fill:currentColor;stroke:currentColor;stroke-width:4.00521"
         d="M 22.617356,3.8375007 C 11.508428,3.8378336 2.5029447,12.843318 2.5026118,23.952245 2.5029432,35.004884 11.419219,44.063442 22.450473,44.154393 l 0.08084,0.0026 c 0,0 23.777985,0.03888 23.069109,-0.09 L 40.103676,33.88967 C 41.821409,30.86676 42.731945,27.442903 42.7321,23.952247 42.731766,12.843318 33.726285,3.8378338 22.617356,3.8375007 Z"
         sodipodi:nodetypes="cccccccc"
         inkscape:label="Comment"
         inkscape:export-filename="comment-fill.svg"
         inkscape:export-xdpi="96"
         inkscape:export-ydpi="96" />
    </g>
    <g
       inkscape:groupmode="layer"
       id="layer4"
       inkscape:label="Logo"
       style="display:none">
      <g
         id="g11"
         inkscape:label="Logo"
         transform="translate(4.5246161e-8,-5.4554189)">
        <circle
           style="fill:currentColor;stroke:currentColor;stroke-width:4.01365;stroke-dasharray:none;stroke-opacity:1"
           id="path6"
           cx="24"
           cy="15.674343"
           r="5.8582649"
           inkscape:label="Head" />
        <g
           id="g10"
           inkscape:label="Book"
           transform="matrix(1.0709377,0,0,1.0567106,-3.5714166,5.1271794)">
          <path
             id="rect8"
             style="fill:#b3b3b3;stroke-width:9.22205"
             d="m -13.401248,19.084375 c 0.829416,-0.248675 1.42933,0.156157 1.42933,1.072188 v 18.876953 c 0,1.127422 -0.908911,2.589653 -2.036333,3.276875 l -9.660793,5.887734 v 0.01563 c 0,1.127422 -0.90686,2.034063 -2.034282,2.034063 l -1.326796,7.8e-5 -1.326795,0.808672 c -1.127421,0.687221 -2.036333,0.333984 -2.036333,-0.793438 V 50.2475 l -9.660793,10e-4 c -1.127422,0 -2.034282,-0.908828 -2.034282,-2.03625 V 29.335313 c 0,-1.127422 0.90686,-2.034063 2.034282,-2.034063 l 13.023921,-6.25e-4 13.021871,-7.9375 c 0.211391,-0.128854 0.4156,-0.221364 0.607003,-0.27875 z"
             transform="matrix(-0.95242415,0.30477573,0,1,0,0)" />
          <path
             id="rect7"
             style="stroke-width:9.22205"
             d="m -11.301343,19.444375 c 0.829416,-0.248674 1.4272791,0.156782 1.4272791,1.072813 v 18.876953 c 0,1.127421 -0.9068611,2.589028 -2.0342831,3.27625 l -14.348665,8.746172 c -0.273867,0.166936 -0.53504,0.271748 -0.77311,0.319609 -0.238071,0.09726 -0.499239,0.151641 -0.773109,0.151641 l -14.350716,7.03e-4 c -1.127421,0 -2.034283,-0.908828 -2.034283,-2.03625 V 30.975313 c 0,-1.127422 0.906862,-2.034063 2.034283,-2.034063 l 14.350716,-7.03e-4 c 0.273868,0 0.535039,0.05384 0.773109,0.151094 0.238071,-0.242373 0.499241,-0.455407 0.77311,-0.622344 l 14.348665,-8.746172 c 0.211392,-0.128854 0.4156,-0.221364 0.607004,-0.27875 z"
             transform="matrix(-0.95242415,0.30477573,0,1,0,0)" />
        </g>
      </g>
    </g>
    <g
       inkscape:groupmode="layer"
       id="layer5"
       inkscape:label="Gear">
      <path
         id="path51"
         style="stroke-width:7.69904"
         inkscape:label="Gear"
         d="m 10.40755,10.750718 0.0041,0.0041 a 2.5861072,2.5861072 25.125329 0 0 -0.238924,3.119832 l 2.248378,3.477529 a 12.744471,12.744471 0 0 0 -0.240306,0.571762 l -0.0014,0.0014 -4.0838176,0.876978 A 2.5860961,2.5860961 0 0 0 6.9106861,19.407252 2.5860961,2.5860961 0 0 0 6.0585672,21.1764 h -0.00552 l -0.00138,0.156061 0.00138,2.282905 -0.00138,0.156061 0.00691,-0.0014 a 2.5860961,2.5860961 0 0 0 2.0356942,2.375437 l 4.0133836,0.861786 a 12.744471,12.744471 0 0 0 0.0014,0.0014 12.744471,12.744471 0 0 0 0.270689,0.668437 l -2.269094,3.509294 a 2.5860961,2.5860961 0 0 0 0.238924,3.119832 l -0.0041,0.0041 0.110486,0.110486 1.614468,1.614468 0.109104,0.109104 0.0041,-0.0041 a 2.5860961,2.5860961 0 0 0 3.119832,0.238925 l 3.447146,-2.229044 a 12.744471,12.744471 0 0 0 0.664293,0.280357 12.744471,12.744471 0 0 0 0.0014,0.0014 l 0.876978,4.08658 a 2.5861072,2.5861072 25.125329 0 0 2.374056,2.037075 l 0.0014,0.0069 h 0.15468 l 2.282905,-0.0014 0.156061,0.0014 v -0.0055 a 2.5861072,2.5861072 25.125329 0 0 2.374056,-2.037076 l 0.863167,-4.014764 a 12.744471,12.744471 0 0 0 0.575905,-0.230638 l 3.541059,2.28981 a 2.5860961,2.5860961 0 0 0 3.118451,-0.237544 l 0.0041,0.0041 0.110486,-0.110486 1.614468,-1.614468 0.109104,-0.109105 -0.0041,-0.0041 a 2.5860961,2.5860961 0 0 0 0.238925,-3.119832 l -2.209709,-3.416762 0.0014,-0.0014 a 12.744471,12.744471 0 0 0 0.32317,-0.756826 l 4.08658,-0.876978 A 2.5861072,2.5861072 25.125329 0 0 42.04652,23.94684 l 0.0069,-0.0014 v -0.154679 l -0.0014,-2.282905 0.0014,-0.156061 h -0.0055 A 2.5861072,2.5861072 25.125329 0 0 40.010741,18.97774 l -4.013383,-0.861786 -0.0014,-0.0014 a 12.744471,12.744471 0 0 0 -0.27069,-0.668437 l 2.269095,-3.509294 A 2.5861072,2.5861072 25.125329 0 0 37.755457,10.81701 l 0.0041,-0.0041 -0.110486,-0.110485 -1.614468,-1.6144684 -0.109105,-0.1091043 -0.0041,0.00414 A 2.5861072,2.5861072 25.125329 0 0 32.801567,8.7440267 L 29.354421,10.97307 a 12.744471,12.744471 0 0 0 -0.664294,-0.280356 12.744471,12.744471 0 0 0 -0.0014,-0.0014 L 27.811768,6.6047525 A 2.5860961,2.5860961 0 0 0 25.437712,4.5676773 v -0.00552 l -0.15606,-0.00138 -2.282906,0.00138 -0.15606,-0.00138 0.0014,0.00691 a 2.5860961,2.5860961 0 0 0 -1.77191,0.8521189 2.5860961,2.5860961 0 0 0 -0.603527,1.1835752 l -0.861786,4.0133836 a 12.744471,12.744471 0 0 0 -0.763731,0.313502 L 15.365584,8.6818787 a 2.5861072,2.5861072 25.125329 0 0 -3.119832,0.2389247 l -0.0041,-0.00414 -0.109104,0.1091044 -1.615849,1.6158492 z m 8.735255,6.901197 a 6.94384,6.94384 0 0 1 9.819393,0 6.94384,6.94384 0 0 1 0,9.819393 6.94384,6.94384 0 0 1 -9.819393,0 6.94384,6.94384 0 0 1 0,-9.819393 z"
         transform="rotate(45,22.289962,23.217431)" />
    </g>
  </g>
</svg>
