<?xml version="1.0" encoding="UTF-8" standalone="no"?>
<!-- Created with Inkscape (http://www.inkscape.org/) -->

<svg
   width="48"
   height="48"
   viewBox="0 0 48 48"
   version="1.1"
   id="svg1"
   inkscape:export-filename="logo.svg"
   inkscape:export-xdpi="96"
   inkscape:export-ydpi="96"
   sodipodi:docname="share-fill.svg"
   inkscape:version="1.4.2 (ebf0e940, 2025-05-08)"
   xmlns:inkscape="http://www.inkscape.org/namespaces/inkscape"
   xmlns:sodipodi="http://sodipodi.sourceforge.net/DTD/sodipodi-0.dtd"
   xmlns="http://www.w3.org/2000/svg"
   xmlns:svg="http://www.w3.org/2000/svg">
  <sodipodi:namedview
     id="namedview1"
     pagecolor="#ffffff"
     bordercolor="#000000"
     borderopacity="0.25"
     inkscape:showpageshadow="2"
     inkscape:pageopacity="0.0"
     inkscape:pagecheckerboard="0"
     inkscape:deskcolor="#d1d1d1"
     inkscape:document-units="px"
     inkscape:zoom="7.4036772"
     inkscape:cx="20.597873"
     inkscape:cy="41.668483"
     inkscape:window-width="1440"
     inkscape:window-height="776"
     inkscape:window-x="0"
     inkscape:window-y="25"
     inkscape:window-maximized="0"
     inkscape:current-layer="layer6"
     showguides="false">
    <inkscape:page
       x="0"
       y="0"
       width="48"
       height="48"
       id="page2"
       margin="0"
       bleed="0" />
  </sodipodi:namedview>
  <defs
     id="defs1">
    <inkscape:path-effect
       effect="fillet_chamfer"
       id="path-effect50"
       is_visible="true"
       lpeversion="1"
       nodesatellites_param="F,0,0,1,0,0.78831736,0,1 @ F,0,0,1,0,0.46487371,0,1 @ F,0,0,1,0,0,0,1 @ F,0,0,1,0,0,0,1 @ F,0,0,1,0,0.47061665,0,1 @ F,0,0,1,0,0.47061665,0,1"
       radius="0"
       unit="px"
       method="auto"
       mode="F"
       chamfer_steps="1"
       flexible="false"
       use_knot_distance="true"
       apply_no_radius="true"
       apply_with_radius="true"
       only_selected="false"
       hide_knots="false" />
    <inkscape:path-effect
       effect="fillet_chamfer"
       id="path-effect48"
       is_visible="true"
       lpeversion="1"
       nodesatellites_param="F,0,0,1,0,0.18934415,0,1 @ F,0,0,1,0,0.18934415,0,1 @ F,0,0,1,0,0,0,1 @ F,0,0,1,0,0.31472521,0,1 @ F,0,0,1,0,0.22979844,0,1 @ F,0,0,1,0,0.31472521,0,1 @ F,0,0,1,0,0,0,1 @ F,0,0,1,0,0,0,1"
       radius="0"
       unit="px"
       method="auto"
       mode="F"
       chamfer_steps="1"
       flexible="false"
       use_knot_distance="true"
       apply_no_radius="true"
       apply_with_radius="true"
       only_selected="false"
       hide_knots="false" />
    <inkscape:path-effect
       effect="fillet_chamfer"
       id="path-effect44"
       is_visible="true"
       lpeversion="1"
       nodesatellites_param="F,0,0,1,0,0,0,1 @ F,0,0,1,0,0,0,1 @ F,0,0,1,0,0,0,1 @ F,0,0,1,0,0,0,1 @ F,0,0,1,0,0.47061665,0,1 @ F,0,0,1,0,0.47061665,0,1"
       radius="0"
       unit="px"
       method="auto"
       mode="F"
       chamfer_steps="1"
       flexible="false"
       use_knot_distance="true"
       apply_no_radius="true"
       apply_with_radius="true"
       only_selected="false"
       hide_knots="false" />
    <inkscape:path-effect
       effect="fillet_chamfer"
       id="path-effect43"
       is_visible="true"
       lpeversion="1"
       nodesatellites_param="F,0,1,1,0,0.4790501,0,1 @ F,0,0,1,0,0.4790501,0,1 @ F,0,1,1,0,0.4790501,0,1 @ F,0,1,1,0,0.4790501,0,1"
       radius="0"
       unit="px"
       method="auto"
       mode="F"
       chamfer_steps="1"
       flexible="false"
       use_knot_distance="true"
       apply_no_radius="true"
       apply_with_radius="true"
       only_selected="false"
       hide_knots="false" />
    <inkscape:path-effect
       effect="fillet_chamfer"
       id="path-effect34"
       is_visible="true"
       lpeversion="1"
       nodesatellites_param="F,0,0,1,0,0,0,1 @ F,0,0,1,0,0,0,1 @ F,0,0,1,0,1.0157426,0,1 @ F,0,1,1,0,1.0157426,0,1 @ F,0,0,1,0,0,0,1 | F,0,1,1,0,1.0157426,0,1 @ F,0,1,1,0,1.0157426,0,1 @ F,0,0,1,0,0,0,1 @ F,0,0,1,0,0,0,1 | F,0,1,1,0,1.0157426,0,1 @ F,0,0,1,0,0,0,1 @ F,0,0,1,0,0,0,1 @ F,0,1,1,0,1.0157426,0,1 | F,0,1,1,0,1.0157426,0,1 @ F,0,1,1,0,1.0157426,0,1 @ F,0,0,1,0,0,0,1 @ F,0,0,1,0,0,0,1"
       radius="0"
       unit="px"
       method="auto"
       mode="F"
       chamfer_steps="1"
       flexible="false"
       use_knot_distance="true"
       apply_no_radius="true"
       apply_with_radius="true"
       only_selected="false"
       hide_knots="false" />
    <inkscape:path-effect
       effect="fillet_chamfer"
       id="path-effect33"
       is_visible="true"
       lpeversion="1"
       nodesatellites_param="F,0,0,1,0,0,0,1 @ F,0,0,1,0,0,0,1 @ F,0,1,1,0,0.87963228,0,1 @ F,0,0,1,0,0.87963228,0,1 | F,0,1,1,0,0.87963228,0,1 @ F,0,1,1,0,0.87963228,0,1 @ F,0,0,1,0,0,0,1 @ F,0,0,1,0,0,0,1 | F,0,1,1,0,0.87963228,0,1 @ F,0,1,1,0,0.87963228,0,1 @ F,0,0,1,0,0,0,1 @ F,0,0,1,0,0,0,1 | F,0,1,1,0,0.87963228,0,1 @ F,0,0,1,0,0,0,1 @ F,0,0,1,0,0,0,1 @ F,0,1,1,0,0.87963228,0,1"
       radius="0"
       unit="px"
       method="auto"
       mode="F"
       chamfer_steps="1"
       flexible="false"
       use_knot_distance="true"
       apply_no_radius="true"
       apply_with_radius="true"
       only_selected="false"
       hide_knots="false" />
    <inkscape:path-effect
       effect="fillet_chamfer"
       id="path-effect4"
       is_visible="true"
       lpeversion="1"
       nodesatellites_param="F,0,0,1,0,0,0,1 @ F,0,0,1,0,0,0,1 @ F,0,0,1,0,0,0,1 @ F,0,0,1,0,0,0,1 @ F,0,0,1,0,0,0,1 @ F,0,0,1,0,1.1723327,0,1 @ F,0,0,1,0,0,0,1"
       radius="0"
       unit="px"
       method="auto"
       mode="F"
       chamfer_steps="1"
       flexible="false"
       use_knot_distance="true"
       apply_no_radius="true"
       apply_with_radius="true"
       only_selected="false"
       hide_knots="false" />
  </defs>
  <g
     inkscape:label="Shelfspace-Icons"
     inkscape:groupmode="layer"
     id="layer1">
    <g
       inkscape:groupmode="layer"
       id="layer2"
       inkscape:label="Heart"
       style="display:none">
      <path
         id="rect1"
         style="display:inline;fill:none;stroke:#000000;stroke-width:2.5;stroke-dasharray:none;stroke-opacity:1"
         d="M 16.151742,9.2703385 A 9.203746,9.2036941 0 0 0 9.6444069,11.96528 l -0.01958,0.01958 a 9.203746,9.2036941 0 0 0 10e-7,13.016302 l 1.3393131,1.339314 11.748765,11.748766 a 1.819736,1.8197256 0 0 1 0.0016,0.0016 l 0.197391,0.197389 a 1.5393921,1.5393835 0 0 0 2.176182,0 l 0.199024,-0.199022 11.748763,-11.748768 1.339314,-1.339313 a 9.203746,9.2036941 0 0 0 10e-7,-13.016302 l -0.01958,-0.01958 a 9.203746,9.2036941 0 0 0 -13.016303,2e-6 L 24.000048,13.304614 22.660731,11.9653 A 9.203746,9.2036941 0 0 0 16.151742,9.2703364 Z"
         inkscape:label="Heart"
         inkscape:export-filename="heart-line.svg"
         inkscape:export-xdpi="96"
         inkscape:export-ydpi="96" />
    </g>
    <g
       inkscape:groupmode="layer"
       id="layer3"
       inkscape:label="Comment"
       style="display:none;fill:none"
       transform="matrix(0.74468107,0,0,0.74468107,6.1276544,6.1276545)"
       inkscape:export-filename="comment-line.svg"
       inkscape:export-xdpi="96"
       inkscape:export-ydpi="96">
      <path
         id="path4"
         style="display:inline;fill:#000000;stroke:#000000;stroke-width:3.35714;stroke-dasharray:none"
         d="M 22.617356,3.8375007 C 11.508428,3.8378336 2.5029447,12.843318 2.5026118,23.952245 2.5029432,35.004884 11.419219,44.063442 22.450473,44.154393 l 0.08084,0.0026 c 0,0 23.777985,0.03888 23.069109,-0.09 L 40.660786,34.92117 c -0.307683,-0.569682 -0.294452,-1.486544 -0.0079,-2.067038 1.361963,-2.758996 2.079071,-5.804137 2.079209,-8.901885 C 42.731766,12.843318 33.726285,3.8378338 22.617356,3.8375007 Z"
         sodipodi:nodetypes="cccccccc"
         inkscape:label="Comment"
         inkscape:export-filename="comment-fill.svg"
         inkscape:export-xdpi="96"
         inkscape:export-ydpi="96"
         inkscape:path-effect="#path-effect4"
         inkscape:original-d="M 22.617356,3.8375007 C 11.508428,3.8378336 2.5029447,12.843318 2.5026118,23.952245 2.5029432,35.004884 11.419219,44.063442 22.450473,44.154393 l 0.08084,0.0026 c 0,0 23.777985,0.03888 23.069109,-0.09 L 40.103676,33.88967 C 41.821409,30.86676 42.731945,27.442903 42.7321,23.952247 42.731766,12.843318 33.726285,3.8378338 22.617356,3.8375007 Z" />
    </g>
    <g
       inkscape:groupmode="layer"
       id="layer4"
       inkscape:label="Logo"
       style="display:inline">
      <g
         id="g11"
         inkscape:label="Logo"
         transform="translate(4.5246161e-8,-5.4554189)"
         style="display:none">
        <g
           id="g30"
           transform="matrix(1.281294,0,0,1.281294,-6.751056,-16.013018)">
          <g
             id="g10"
             inkscape:label="Book"
             transform="matrix(0.70534448,0,0,0.69597418,5.8408237,18.864597)"
             style="display:inline">
            <path
               id="rect8"
               style="fill:#f5f2d0;fill-opacity:1;stroke-width:9.22205"
               d="m -13.401248,19.084375 c 0.829416,-0.248675 1.42933,0.156157 1.42933,1.072188 v 18.876953 c 0,1.127422 -0.908911,2.589653 -2.036333,3.276875 l -9.660793,5.887734 v 0.01563 c 0,1.127422 -0.90686,2.034063 -2.034282,2.034063 l -1.326796,7.8e-5 -1.326795,0.808672 c -1.127421,0.687221 -2.036333,0.333984 -2.036333,-0.793438 V 50.2475 l -9.660793,10e-4 c -1.127422,0 -2.034282,-0.908828 -2.034282,-2.03625 V 29.335313 c 0,-1.127422 0.90686,-2.034063 2.034282,-2.034063 l 13.023921,-6.25e-4 13.021871,-7.9375 c 0.211391,-0.128854 0.4156,-0.221364 0.607003,-0.27875 z"
               transform="matrix(-0.95242415,0.30477573,0,1,0,0)" />
            <path
               id="rect7"
               style="fill:#78c0a8;fill-opacity:1;stroke-width:9.22205"
               d="m -11.301343,19.444375 c 0.829416,-0.248674 1.4272791,0.156782 1.4272791,1.072813 v 18.876953 c 0,1.127421 -0.9068611,2.589028 -2.0342831,3.27625 l -14.348665,8.746172 c -0.273867,0.166936 -0.53504,0.271748 -0.77311,0.319609 -0.238071,0.09726 -0.499239,0.151641 -0.773109,0.151641 l -14.350716,7.03e-4 c -1.127421,0 -2.034283,-0.908828 -2.034283,-2.03625 V 30.975313 c 0,-1.127422 0.906862,-2.034063 2.034283,-2.034063 l 14.350716,-7.03e-4 c 0.273868,0 0.535039,0.05384 0.773109,0.151094 0.238071,-0.242373 0.499241,-0.455407 0.77311,-0.622344 l 14.348665,-8.746172 c 0.211392,-0.128854 0.4156,-0.221364 0.607004,-0.27875 z"
               transform="matrix(-0.95242415,0.30477573,0,1,0,0)" />
          </g>
          <path
             id="path28"
             style="fill:#b2d3c2;fill-opacity:1;stroke:none;stroke-width:1.42965;stroke-dasharray:none;stroke-opacity:1"
             d="m 20.237774,28.828337 c -0.229717,0.0092 -0.446869,0.104443 -0.613423,0.308253 -0.254928,0.31195 -0.483089,0.649076 -0.681239,1.006445 L 24,31.739785 29.056888,30.143035 C 28.85871,29.785586 28.630626,29.448602 28.375649,29.13659 27.994949,28.670732 27.34925,28.772555 26.899118,29.1705 26.108138,29.869765 25.080026,30.269674 24,30.272503 22.919975,30.269703 21.891861,29.869766 21.100882,29.1705 20.847681,28.946658 20.533125,28.816485 20.237774,28.828339 Z" />
          <circle
             style="fill:#b2d3c2;fill-opacity:1;stroke:none;stroke-width:3.0672;stroke-dasharray:none;stroke-opacity:1"
             id="path29"
             cx="24"
             cy="25.836588"
             r="4.0083141" />
        </g>
      </g>
      <g
         inkscape:groupmode="layer"
         id="layer7"
         inkscape:label="Logo 2"
         style="display:none">
        <path
           id="rect30"
           style="fill:#b3b3b3;fill-opacity:1;stroke:none;stroke-width:3.25591;stroke-dasharray:none;stroke-opacity:1"
           d="m 15.530009,10.575043 c -0.736947,0 -1.329009,0.592063 -1.329009,1.32901 v 9.043351 a 0.1949944,0.1949944 12.499045 0 0 0.371722,0.0824 l 4.50299,-9.657533 a 0.56040817,0.56040817 57.499045 0 0 -0.50791,-0.79723 z m 12.247136,0.371775 5.22465,2.436503 A 0.56036723,0.56036723 147.50094 0 0 33.799,12.875464 v -0.971411 c 0,-0.736947 -0.592062,-1.32901 -1.329009,-1.32901 h -4.610419 a 0.19502496,0.19502496 102.50094 0 0 -0.08243,0.371775 z m 5.650133,16.023376 -4.50299,9.657533 a 0.56040817,0.56040817 57.499045 0 0 0.50791,0.79723 h 3.037793 c 0.736947,0 1.329009,-0.592063 1.329009,-1.32901 v -9.043351 a 0.1949944,0.1949944 12.499045 0 0 -0.371722,-0.0824 z M 14.201,35.124536 l 0,0.971411 c 0,0.736947 0.592062,1.32901 1.329009,1.32901 h 4.610419 a 0.19502496,0.19502496 102.50094 0 0 0.08243,-0.371775 l -5.22465,-2.436503 A 0.56036723,0.56036723 147.50094 0 0 14.201,35.124536 Z"
           sodipodi:nodetypes="ssccsccsscccssccsscc"
           inkscape:path-effect="#path-effect33"
           inkscape:original-d="m 15.530009,10.575043 c -0.736947,0 -1.329009,0.592063 -1.329009,1.32901 v 9.922983 c 1.748811,-3.750664 3.497623,-7.501329 5.246434,-11.251993 z m 11.449931,0 c 2.27302,1.060018 4.54604,2.120035 6.81906,3.180053 v -1.851043 c 0,-0.736947 -0.592062,-1.32901 -1.329009,-1.32901 z M 33.799,26.172964 c -1.748811,3.750664 -3.497623,7.501329 -5.246434,11.251993 h 3.917425 c 0.736947,0 1.329009,-0.592063 1.329009,-1.32901 z m -19.598,8.07194 v 1.851043 c 0,0.736947 0.592062,1.32901 1.329009,1.32901 H 21.02006 C 18.74704,36.364939 16.47402,35.304922 14.201,34.244904 Z" />
        <path
           id="rect31"
           style="fill:#999999;fill-opacity:1;stroke:none;stroke-width:3.09659;stroke-dasharray:none;stroke-opacity:1"
           d="M 21.606501,8.9042712 C 21.113737,8.8858441 20.63708,9.1581104 20.414924,9.6345269 l -2.800137,6.0074691 a 0.42083141,0.42083141 47.495334 0 0 0.525365,0.573241 l 9.930261,-3.614319 a 0.42078326,0.42078326 92.50236 0 0 0.03395,-0.776751 L 22.096786,9.0221878 C 21.937981,8.9481357 21.770756,8.9104137 21.606501,8.9042712 Z m 12.92941,6.7116708 1.255779,3.449067 a 0.42073213,0.42073213 2.4936989 0 0 0.776676,0.03383 l 0.739654,-1.586656 c 0.296208,-0.635221 0.02289,-1.385653 -0.612339,-1.681862 l -1.586655,-0.739653 a 0.4207365,0.4207365 137.4937 0 0 -0.573115,0.525279 z m -23.104277,13.284539 -0.739653,1.586654 c -0.296209,0.635221 -0.02289,1.385655 0.612338,1.681863 l 1.586655,0.739653 a 0.42073646,0.42073646 137.4937 0 0 0.573115,-0.525279 L 12.20831,28.934306 a 0.42073215,0.42073215 2.4936966 0 0 -0.776676,-0.03383 z m 18.428215,2.883596 -9.930262,3.614319 a 0.42078323,0.42078323 92.50236 0 0 -0.03395,0.776751 l 6.007573,2.801979 c 0.635222,0.29621 1.385654,0.02289 1.681863,-0.612338 l 2.800137,-6.00747 a 0.42083145,0.42083145 47.495333 0 0 -0.525365,-0.573241 z"
           inkscape:path-effect="#path-effect34"
           inkscape:original-d="M 21.606501,8.9042712 C 21.113737,8.8858441 20.63708,9.1581104 20.414924,9.6345269 L 17.185666,16.562641 29.024899,12.253514 22.096786,9.0221878 C 21.937981,8.9481357 21.770756,8.9104137 21.606501,8.9042712 Z m 12.581902,5.7572228 1.950795,5.357963 1.168822,-2.507279 c 0.296208,-0.635221 0.02289,-1.385653 -0.612339,-1.681862 z m -22.327601,13.318364 -1.168821,2.507277 c -0.296209,0.635221 -0.02289,1.385655 0.612338,1.681863 l 2.507278,1.168822 z m 18.953533,3.456815 -11.839234,4.309127 6.928113,3.231326 c 0.635222,0.29621 1.385654,0.02289 1.681863,-0.612338 z" />
        <rect
           style="fill:#4d4d4d;fill-opacity:1;stroke:none;stroke-width:2.92358;stroke-dasharray:none;stroke-opacity:1"
           id="rect32"
           width="17.598278"
           height="24.111029"
           x="21.961967"
           y="-26.399654"
           ry="1.1944554"
           transform="rotate(70)" />
      </g>
      <g
         inkscape:groupmode="layer"
         id="layer8"
         inkscape:label="Logo 2.5"
         style="display:inline">
        <g
           id="g48"
           transform="matrix(1.2599409,0,0,1.2599409,-6.2385805,-6.2385824)">
          <rect
             style="display:inline;fill:#1e656d;fill-opacity:1;stroke:none;stroke-width:2.8192;stroke-dasharray:none;stroke-opacity:1"
             id="rect38"
             width="16.969976"
             height="23.250206"
             x="25.326981"
             y="-14.583266"
             ry="1.1518104"
             transform="rotate(50)" />
          <rect
             style="display:inline;fill:#78c0a8;fill-opacity:1;stroke:none;stroke-width:2.86295;stroke-dasharray:none;stroke-opacity:1"
             id="rect36"
             width="17.233292"
             height="23.610968"
             x="24.167965"
             y="-3.020874"
             ry="1.1696825"
             transform="rotate(30)" />
          <g
             id="g40"
             style="display:inline">
            <path
               style="display:inline;fill:#b2d3c2;fill-opacity:1;stroke:none;stroke-width:2.92936;stroke-dasharray:none;stroke-opacity:1"
               inkscape:path-effect="#path-effect50"
               inkscape:original-d="m 18.78125,11.919922 v 24.160156 h 12.837891 c 0.663034,0 1.197265,-0.534232 1.197265,-1.197266 V 13.117188 c 0,-0.663034 -0.534231,-1.197266 -1.197265,-1.197266 z"
               d="m 18.78125,12.708239 v 22.906965 a 0.46487371,0.46487371 45 0 0 0.464874,0.464874 h 12.373017 c 0.663034,0 1.197265,-0.534232 1.197265,-1.197266 V 13.587805 c 0,-0.259915 0.0081,-0.690699 -0.09048,-0.929381 -0.121079,-0.293068 -0.354931,-0.526924 -0.647996,-0.648009 -0.238691,-0.09862 -0.669488,-0.09049 -0.929403,-0.09049 H 19.569567 a 0.78831736,0.78831736 135 0 0 -0.788317,0.788317 z"
               id="path48" />
            <path
               style="display:inline;fill:#b2d3c2;fill-opacity:1;stroke:none;stroke-width:2.92936;stroke-dasharray:none;stroke-opacity:1"
               inkscape:path-effect="#path-effect44"
               inkscape:original-d="m 16.380859,11.919922 c -0.663034,0 -1.197265,0.534232 -1.197265,1.197266 v 21.765624 c 0,0.663034 0.534231,1.197266 1.197265,1.197266 H 17.78125 V 11.919922 Z"
               d="m 16.380859,11.919922 c -0.663034,0 -1.197265,0.534232 -1.197265,1.197266 v 21.765624 c 0,0.663034 0.534231,1.197266 1.197265,1.197266 h 0.929774 A 0.47061665,0.47061665 135 0 0 17.78125,35.609461 V 12.390539 a 0.47061665,0.47061665 45 0 0 -0.470617,-0.470617 z"
               id="rect40" />
            <path
               id="path41"
               style="display:inline;fill:#78c0a8;fill-opacity:1;stroke:none;stroke-width:2.92594;stroke-dasharray:none;stroke-opacity:1"
               d="m 17.947233,12.404831 v 23.190338 a 0.4790501,0.4790501 45 0 0 0.47905,0.47905 h 0.0419 a 0.4790501,0.4790501 135 0 0 0.47905,-0.47905 V 12.404831 a 0.4790501,0.4790501 45 0 0 -0.47905,-0.47905 h -0.0419 a 0.4790501,0.4790501 135 0 0 -0.47905,0.47905 z"
               inkscape:path-effect="#path-effect43"
               inkscape:original-d="m 17.947233,11.925781 v 24.148438 h 1 V 11.925781 Z"
               transform="translate(-0.16607593)" />
          </g>
          <path
             style="baseline-shift:baseline;display:inline;overflow:visible;opacity:1;vector-effect:none;fill:#1e656d;enable-background:accumulate;stop-color:#000000;stop-opacity:1"
             d="m 22.824331,12.618299 -1.619365,0.0095 c -0.10457,6.14e-4 -0.188837,0.08588 -0.188332,0.190452 0.008,1.645507 1.58e-4,3.299066 0.395475,4.640737 0.368982,1.252287 1.935061,2.825247 2.727799,3.543908 0.128622,0.116603 0.207983,0.07017 0.174243,-0.10034 l -0.242201,-1.224 a 0.16227838,0.16227838 133.57824 0 1 0.182756,-0.192058 l 1.113835,0.163471 c 0.171975,0.02524 0.204488,-0.04612 0.07522,-0.162321 -0.716971,-0.644479 -1.881214,-1.804132 -2.113685,-2.593113 -0.260333,-0.883543 -0.316406,-1.569515 -0.316406,-3.277052 v -0.810949 a 0.18823677,0.18823677 44.831961 0 0 -0.189341,-0.188233 z"
             id="path44"
             transform="translate(-2.1667738,-0.92337397)"
             sodipodi:nodetypes="ccscccssc"
             inkscape:path-effect="#path-effect48"
             inkscape:original-d="m 23.013672,12.617188 -1.998047,0.01172 c 0.01016,1.707508 -0.014,3.436932 0.396484,4.830078 0.410483,1.393137 2.302491,3.183138 2.963134,3.752307 l -0.3479,-1.758166 1.652587,0.242541 C 25.019287,19.126499 23.590414,17.778086 23.330078,16.894533 23.069745,16.01099 23.013672,15.325018 23.013672,13.617481 Z" />
        </g>
      </g>
    </g>
    <g
       inkscape:groupmode="layer"
       id="layer5"
       inkscape:label="Gear"
       style="display:inline">
      <path
         id="path51"
         style="display:none;stroke-width:7.69904"
         inkscape:label="Gear"
         d="m 10.40755,10.750718 0.0041,0.0041 a 2.5861072,2.5861072 25.125329 0 0 -0.238924,3.119832 l 2.248378,3.477529 a 12.744471,12.744471 0 0 0 -0.240306,0.571762 l -0.0014,0.0014 -4.0838176,0.876978 A 2.5860961,2.5860961 0 0 0 6.9106861,19.407252 2.5860961,2.5860961 0 0 0 6.0585672,21.1764 h -0.00552 l -0.00138,0.156061 0.00138,2.282905 -0.00138,0.156061 0.00691,-0.0014 a 2.5860961,2.5860961 0 0 0 2.0356942,2.375437 l 4.0133836,0.861786 a 12.744471,12.744471 0 0 0 0.0014,0.0014 12.744471,12.744471 0 0 0 0.270689,0.668437 l -2.269094,3.509294 a 2.5860961,2.5860961 0 0 0 0.238924,3.119832 l -0.0041,0.0041 0.110486,0.110486 1.614468,1.614468 0.109104,0.109104 0.0041,-0.0041 a 2.5860961,2.5860961 0 0 0 3.119832,0.238925 l 3.447146,-2.229044 a 12.744471,12.744471 0 0 0 0.664293,0.280357 12.744471,12.744471 0 0 0 0.0014,0.0014 l 0.876978,4.08658 a 2.5861072,2.5861072 25.125329 0 0 2.374056,2.037075 l 0.0014,0.0069 h 0.15468 l 2.282905,-0.0014 0.156061,0.0014 v -0.0055 a 2.5861072,2.5861072 25.125329 0 0 2.374056,-2.037076 l 0.863167,-4.014764 a 12.744471,12.744471 0 0 0 0.575905,-0.230638 l 3.541059,2.28981 a 2.5860961,2.5860961 0 0 0 3.118451,-0.237544 l 0.0041,0.0041 0.110486,-0.110486 1.614468,-1.614468 0.109104,-0.109105 -0.0041,-0.0041 a 2.5860961,2.5860961 0 0 0 0.238925,-3.119832 l -2.209709,-3.416762 0.0014,-0.0014 a 12.744471,12.744471 0 0 0 0.32317,-0.756826 l 4.08658,-0.876978 A 2.5861072,2.5861072 25.125329 0 0 42.04652,23.94684 l 0.0069,-0.0014 v -0.154679 l -0.0014,-2.282905 0.0014,-0.156061 h -0.0055 A 2.5861072,2.5861072 25.125329 0 0 40.010741,18.97774 l -4.013383,-0.861786 -0.0014,-0.0014 a 12.744471,12.744471 0 0 0 -0.27069,-0.668437 l 2.269095,-3.509294 A 2.5861072,2.5861072 25.125329 0 0 37.755457,10.81701 l 0.0041,-0.0041 -0.110486,-0.110485 -1.614468,-1.6144684 -0.109105,-0.1091043 -0.0041,0.00414 A 2.5861072,2.5861072 25.125329 0 0 32.801567,8.7440267 L 29.354421,10.97307 a 12.744471,12.744471 0 0 0 -0.664294,-0.280356 12.744471,12.744471 0 0 0 -0.0014,-0.0014 L 27.811768,6.6047525 A 2.5860961,2.5860961 0 0 0 25.437712,4.5676773 v -0.00552 l -0.15606,-0.00138 -2.282906,0.00138 -0.15606,-0.00138 0.0014,0.00691 a 2.5860961,2.5860961 0 0 0 -1.77191,0.8521189 2.5860961,2.5860961 0 0 0 -0.603527,1.1835752 l -0.861786,4.0133836 a 12.744471,12.744471 0 0 0 -0.763731,0.313502 L 15.365584,8.6818787 a 2.5861072,2.5861072 25.125329 0 0 -3.119832,0.2389247 l -0.0041,-0.00414 -0.109104,0.1091044 -1.615849,1.6158492 z m 8.735255,6.901197 a 6.94384,6.94384 0 0 1 9.819393,0 6.94384,6.94384 0 0 1 0,9.819393 6.94384,6.94384 0 0 1 -9.819393,0 6.94384,6.94384 0 0 1 0,-9.819393 z"
         transform="rotate(45,22.289962,23.217431)" />
    </g>
    <g
       inkscape:groupmode="layer"
       id="layer6"
       inkscape:label="Share"
       style="display:none">
      <g
         id="path117"
         style="display:none;opacity:1;fill:#000000;stroke-width:2.5;stroke-dasharray:none">
        <g
           id="path129"
           style="display:inline;opacity:1;fill:#000000;stroke-width:1.03914;stroke-dasharray:none"
           transform="matrix(2.4058321,0,0,2.4058321,-29.981901,-38.683531)">
          <g
             id="path135"
             style="display:inline;opacity:1;fill:#000000;stroke-width:0.932836;stroke-dasharray:none"
             transform="matrix(1.1139597,0,0,1.1139597,-0.83401363,-3.9571544)">
            <path
               style="baseline-shift:baseline;display:inline;overflow:visible;fill:#000000;stroke:#000000;stroke-width:0.932836;stroke-linecap:round;stroke-miterlimit:12;stroke-dasharray:none;stroke-opacity:1;enable-background:accumulate;stop-color:#000000;stop-opacity:1"
               d="m 21.765706,21.431485 c -0.538374,-0.04246 -0.993648,0.527317 -0.995985,1.246477 l -0.0028,0.955564 c -4.74e-4,0.159428 -0.130913,0.285377 -0.288931,0.306285 -0.166796,0.02207 -0.101351,0.06023 -0.527788,0.125203 -1.106955,0.16864 -2.269559,0.579588 -3.250411,1.507437 -1.556114,1.472025 -1.364802,2.743945 -1.470661,4.986571 -0.04759,0.997755 0.722778,1.845124 1.720542,1.892522 0.998591,0.04757 1.846322,-0.72413 1.892522,-1.722786 0.03945,-0.835722 0.01492,-1.326892 -0.0044,-1.645936 -0.03375,-0.556264 0.682553,-1.236288 1.246528,-1.365552 0.12931,-0.02964 0.26715,-0.05616 0.411015,-0.07807 0.04067,-0.0062 0.06883,-0.01205 0.08774,-0.01758 0.0992,-0.02902 0.170664,0.05335 0.170176,0.212781 l -0.0028,0.919672 c -0.0028,0.930289 0.729438,1.537675 1.354899,1.123849 l 4.028183,-3.236205 c 0.561068,-0.371659 0.564126,-1.437151 0.0052,-1.811766 L 22.132241,21.56309 C 22.018152,21.4864 21.893473,21.441614 21.76585,21.431488 Z"
               id="path1" />
          </g>
          <g
             id="g133"
             style="fill:#000000;stroke-width:1.03914;stroke-dasharray:none" />
        </g>
      </g>
      <path
         id="path5"
         style="display:inline;fill:#000000;stroke:#000000;stroke-width:2.5;stroke-dasharray:none"
         d="m 23,9.0292969 a 1.8682811,1.8682811 0 0 0 -1.8125,1.4218751 l -1.033203,4.201172 a 10.317189,10.317189 0 0 0 -0.04492,0.01758 l -3.699219,-2.240234 a 1.8682811,1.8682811 0 0 0 -2.289062,0.279296 l -0.214844,0.212891 -0.984375,0.984375 -0.214844,0.214844 a 1.8682811,1.8682811 0 0 0 -0.27539,2.287109 l 2.164062,3.576172 a 10.317189,10.317189 0 0 0 -0.08984,0.207031 L 10.451172,21.1875 a 1.8682811,1.8682811 0 0 0 -1.4218751,1.814453 v 0.302735 1.390624 0.302735 A 1.8682811,1.8682811 0 0 0 10.451172,26.8125 l 3.855469,0.947266 a 10.317189,10.317189 0 0 0 0.173828,0.445312 l -2.048828,3.386719 a 1.8682811,1.8682811 0 0 0 0.27539,2.287109 l 0.214844,0.214844 0.984375,0.984375 0.214844,0.212891 a 1.8682811,1.8682811 0 0 0 2.289062,0.279296 l 3.265625,-1.978515 a 10.317189,10.317189 0 0 0 0.601563,0.255859 L 21.1875,37.548828 A 1.8682811,1.8682811 0 0 0 23,38.970703 H 23.302734 24.697266 25 a 1.8682811,1.8682811 0 0 0 1.8125,-1.421875 l 0.910156,-3.701172 a 10.317189,10.317189 0 0 0 0.601563,-0.255859 h 0.002 l 3.263672,1.978515 a 1.8682811,1.8682811 0 0 0 2.289062,-0.279296 l 0.214844,-0.212891 0.984375,-0.984375 0.214844,-0.214844 a 1.8682811,1.8682811 0 0 0 0.27539,-2.287109 l -2.048828,-3.386719 a 10.317189,10.317189 0 0 0 0.173828,-0.445312 L 37.548828,26.8125 a 1.8682811,1.8682811 0 0 0 1.421875,-1.814453 V 24.695312 23.304688 23.001953 A 1.8682811,1.8682811 0 0 0 37.548828,21.1875 l -4.054687,-0.998047 a 10.317189,10.317189 0 0 0 -0.08984,-0.205078 l 2.164062,-3.576172 a 1.8682811,1.8682811 0 0 0 -0.27539,-2.287109 L 35.078125,13.90625 34.09375,12.921875 33.878906,12.708984 a 1.8682811,1.8682811 0 0 0 -2.289062,-0.279296 l -3.699219,2.240234 a 10.317189,10.317189 0 0 0 -0.04492,-0.01758 L 26.8125,10.451172 A 1.8682811,1.8682811 0 0 0 25,9.0292969 H 24.697266 23.302734 Z M 24,20.273438 A 3.7267475,3.7267475 0 0 1 27.726562,24 3.7267475,3.7267475 0 0 1 24,27.726562 3.7267475,3.7267475 0 0 1 20.273438,24 3.7267475,3.7267475 0 0 1 24,20.273438 Z" />
      <circle
         style="fill:none;stroke:#000000;stroke-width:2.5;stroke-dasharray:none;stroke-opacity:1"
         id="path27"
         cx="24"
         cy="24"
         r="3.7267475" />
    </g>
  </g>
</svg>
