<?xml version="1.0" encoding="UTF-8" standalone="no"?>
<!-- Created with Inkscape (http://www.inkscape.org/) -->

<svg
   width="48"
   height="48"
   viewBox="0 0 48 48"
   version="1.1"
   id="svg1"
   inkscape:export-filename="share-fill.svg"
   inkscape:export-xdpi="96"
   inkscape:export-ydpi="96"
   sodipodi:docname="share-fill.svg"
   inkscape:version="1.4.2 (ebf0e940, 2025-05-08)"
   xmlns:inkscape="http://www.inkscape.org/namespaces/inkscape"
   xmlns:sodipodi="http://sodipodi.sourceforge.net/DTD/sodipodi-0.dtd"
   xmlns="http://www.w3.org/2000/svg"
   xmlns:svg="http://www.w3.org/2000/svg">
  <sodipodi:namedview
     id="namedview1"
     pagecolor="#ffffff"
     bordercolor="#000000"
     borderopacity="0.25"
     inkscape:showpageshadow="2"
     inkscape:pageopacity="0.0"
     inkscape:pagecheckerboard="0"
     inkscape:deskcolor="#d1d1d1"
     inkscape:document-units="px"
     inkscape:zoom="7.4036772"
     inkscape:cx="20.597873"
     inkscape:cy="41.668483"
     inkscape:window-width="1440"
     inkscape:window-height="776"
     inkscape:window-x="0"
     inkscape:window-y="25"
     inkscape:window-maximized="0"
     inkscape:current-layer="layer6"
     showguides="false">
    <inkscape:page
       x="0"
       y="0"
       width="48"
       height="48"
       id="page2"
       margin="0"
       bleed="0" />
  </sodipodi:namedview>
  <defs
     id="defs1">
    <inkscape:path-effect
       effect="fillet_chamfer"
       id="path-effect27"
       is_visible="true"
       lpeversion="1"
       nodesatellites_param="F,0,0,1,0,1.6882513,0,1 @ F,0,0,1,0,0,0,1 @ F,0,0,1,0,0,0,1 @ F,0,0,1,0,0,0,1 @ F,0,0,1,0,0,0,1 @ F,0,1,1,0,1.6882513,0,1 @ F,0,0,1,0,0,0,1 @ F,0,0,1,0,0,0,1"
       radius="0"
       unit="px"
       method="auto"
       mode="F"
       chamfer_steps="1"
       flexible="false"
       use_knot_distance="true"
       apply_no_radius="true"
       apply_with_radius="true"
       only_selected="false"
       hide_knots="false" />
    <inkscape:path-effect
       effect="fillet_chamfer"
       id="path-effect25"
       is_visible="true"
       lpeversion="1"
       nodesatellites_param="F,0,0,1,0,1.6882513,0,1 @ F,0,0,1,0,0,0,1 @ F,0,0,1,0,0,0,1 @ F,0,0,1,0,0,0,1 @ F,0,0,1,0,0,0,1 @ F,0,1,1,0,1.6882513,0,1 @ F,0,0,1,0,0,0,1 @ F,0,0,1,0,0,0,1"
       radius="0"
       unit="px"
       method="auto"
       mode="F"
       chamfer_steps="1"
       flexible="false"
       use_knot_distance="true"
       apply_no_radius="true"
       apply_with_radius="true"
       only_selected="false"
       hide_knots="false" />
    <inkscape:path-effect
       effect="fillet_chamfer"
       id="path-effect23"
       is_visible="true"
       lpeversion="1"
       nodesatellites_param="F,0,0,1,0,1.6882513,0,1 @ F,0,0,1,0,0,0,1 @ F,0,0,1,0,0,0,1 @ F,0,0,1,0,0,0,1 @ F,0,0,1,0,0,0,1 @ F,0,1,1,0,1.6882513,0,1 @ F,0,0,1,0,0,0,1 @ F,0,0,1,0,0,0,1"
       radius="0"
       unit="px"
       method="auto"
       mode="F"
       chamfer_steps="1"
       flexible="false"
       use_knot_distance="true"
       apply_no_radius="true"
       apply_with_radius="true"
       only_selected="false"
       hide_knots="false" />
    <inkscape:path-effect
       effect="fillet_chamfer"
       id="path-effect21"
       is_visible="true"
       lpeversion="1"
       nodesatellites_param="F,0,0,1,0,1.6882513,0,1 @ F,0,0,1,0,0,0,1 @ F,0,0,1,0,0,0,1 @ F,0,0,1,0,0,0,1 @ F,0,0,1,0,0,0,1 @ F,0,1,1,0,1.6882513,0,1 @ F,0,0,1,0,0,0,1 @ F,0,0,1,0,0,0,1"
       radius="0"
       unit="px"
       method="auto"
       mode="F"
       chamfer_steps="1"
       flexible="false"
       use_knot_distance="true"
       apply_no_radius="true"
       apply_with_radius="true"
       only_selected="false"
       hide_knots="false" />
    <inkscape:path-effect
       effect="fillet_chamfer"
       id="path-effect19"
       is_visible="true"
       lpeversion="1"
       nodesatellites_param="F,0,0,1,0,1.6882513,0,1 @ F,0,0,1,0,0,0,1 @ F,0,0,1,0,0,0,1 @ F,0,0,1,0,0,0,1 @ F,0,0,1,0,0,0,1 @ F,0,1,1,0,1.6882513,0,1 @ F,0,0,1,0,0,0,1 @ F,0,0,1,0,0,0,1"
       radius="0"
       unit="px"
       method="auto"
       mode="F"
       chamfer_steps="1"
       flexible="false"
       use_knot_distance="true"
       apply_no_radius="true"
       apply_with_radius="true"
       only_selected="false"
       hide_knots="false" />
    <inkscape:path-effect
       effect="fillet_chamfer"
       id="path-effect17"
       is_visible="true"
       lpeversion="1"
       nodesatellites_param="F,0,0,1,0,1.6882513,0,1 @ F,0,0,1,0,0,0,1 @ F,0,0,1,0,0,0,1 @ F,0,0,1,0,0,0,1 @ F,0,0,1,0,0,0,1 @ F,0,1,1,0,1.6882513,0,1 @ F,0,0,1,0,0,0,1 @ F,0,0,1,0,0,0,1"
       radius="0"
       unit="px"
       method="auto"
       mode="F"
       chamfer_steps="1"
       flexible="false"
       use_knot_distance="true"
       apply_no_radius="true"
       apply_with_radius="true"
       only_selected="false"
       hide_knots="false" />
    <inkscape:path-effect
       effect="fillet_chamfer"
       id="path-effect15"
       is_visible="true"
       lpeversion="1"
       nodesatellites_param="F,0,0,1,0,1.6882513,0,1 @ F,0,0,1,0,0,0,1 @ F,0,0,1,0,0,0,1 @ F,0,0,1,0,0,0,1 @ F,0,0,1,0,0,0,1 @ F,0,1,1,0,1.6882513,0,1 @ F,0,0,1,0,0,0,1 @ F,0,0,1,0,0,0,1"
       radius="0"
       unit="px"
       method="auto"
       mode="F"
       chamfer_steps="1"
       flexible="false"
       use_knot_distance="true"
       apply_no_radius="true"
       apply_with_radius="true"
       only_selected="false"
       hide_knots="false" />
    <inkscape:path-effect
       effect="fillet_chamfer"
       id="path-effect13"
       is_visible="true"
       lpeversion="1"
       nodesatellites_param="F,0,0,1,0,1.6882513,0,1 @ F,0,0,1,0,0,0,1 @ F,0,0,1,0,0,0,1 @ F,0,0,1,0,0,0,1 @ F,0,0,1,0,0,0,1 @ F,0,1,1,0,1.6882513,0,1 @ F,0,0,1,0,0,0,1 @ F,0,0,1,0,0,0,1"
       radius="0"
       unit="px"
       method="auto"
       mode="F"
       chamfer_steps="1"
       flexible="false"
       use_knot_distance="true"
       apply_no_radius="true"
       apply_with_radius="true"
       only_selected="false"
       hide_knots="false" />
    <inkscape:path-effect
       effect="fillet_chamfer"
       id="path-effect4"
       is_visible="true"
       lpeversion="1"
       nodesatellites_param="F,0,0,1,0,0,0,1 @ F,0,0,1,0,0,0,1 @ F,0,0,1,0,0,0,1 @ F,0,0,1,0,0,0,1 @ F,0,0,1,0,0,0,1 @ F,0,0,1,0,1.1723327,0,1 @ F,0,0,1,0,0,0,1"
       radius="0"
       unit="px"
       method="auto"
       mode="F"
       chamfer_steps="1"
       flexible="false"
       use_knot_distance="true"
       apply_no_radius="true"
       apply_with_radius="true"
       only_selected="false"
       hide_knots="false" />
    <inkscape:path-effect
       effect="fillet_chamfer"
       id="path-effect3"
       is_visible="true"
       lpeversion="1"
       nodesatellites_param="F,0,0,1,0,0,0,1 @ F,0,0,1,0,0,0,1 @ F,0,0,1,0,0,0,1 | F,0,0,1,0,0,0,1 @ F,0,0,1,0,0,0,1 @ F,0,0,1,0,0,0,1 @ F,0,0,1,0,0,0,1 @ F,0,0,1,0,0,0,1 @ F,0,0,1,0,0,0,1 @ F,0,0,1,0,0,0,1 @ F,0,0,1,0,0,0,1 @ F,0,0,1,0,0,0,1 @ F,0,0,1,0,0,0,1 @ F,0,0,1,0,0,0,1 @ F,0,0,1,0,0,0,1 @ F,0,0,1,0,0,0,1 @ F,0,0,1,0,0,0,1 @ F,0,0,1,0,0,0,1 @ F,0,0,1,0,0,0,1 @ F,0,0,1,0,0,0,1 @ F,0,0,1,0,0,0,1 @ F,0,0,1,0,0,0,1 @ F,0,0,1,0,0,0,1 @ F,0,0,1,0,0,0,1 @ F,0,0,1,0,0,0,1 @ F,0,0,1,0,0,0,1 @ F,0,0,1,0,0,0,1 @ F,0,0,1,0,0,0,1 @ F,0,0,1,0,0,0,1 @ F,0,0,1,0,0,0,1 | F,0,0,1,0,0,0,1 @ F,0,0,1,0,0,0,1 @ F,0,0,1,0,0,0,1 @ F,0,0,1,0,0,0,1 @ F,0,0,1,0,0,0,1 @ F,0,0,1,0,0,0,1 @ F,0,0,1,0,0,0,1 @ F,0,0,1,0,0,0,1 @ F,0,0,1,0,0,0,1 @ F,0,0,1,0,0,0,1 @ F,0,0,1,0,0,0,1 @ F,0,0,1,0,0,0,1 @ F,0,0,1,0,0,0,1 @ F,0,0,1,0,0,0,1 @ F,0,0,1,0,0,0,1 @ F,0,0,1,0,0,0,1 @ F,0,0,1,0,0,0,1 @ F,0,0,1,0,0,0,1 @ F,0,0,1,0,0,0,1 @ F,0,0,1,0,0,0,1 @ F,0,0,1,0,0,0,1 @ F,0,0,1,0,0,0,1 @ F,0,0,1,0,0,0,1 @ F,0,0,1,0,0,0,1 @ F,0,0,1,0,0,0,1 @ F,0,0,1,0,0,0,1 @ F,0,0,1,0,0,0,1 @ F,0,0,1,0,0,0,1"
       radius="0"
       unit="px"
       method="auto"
       mode="F"
       chamfer_steps="1"
       flexible="false"
       use_knot_distance="true"
       apply_no_radius="true"
       apply_with_radius="true"
       only_selected="false"
       hide_knots="false" />
    <inkscape:path-effect
       effect="fillet_chamfer"
       id="path-effect1"
       is_visible="true"
       lpeversion="1"
       nodesatellites_param="F,0,0,1,0,0,0,1 @ F,0,0,1,0,0,0,1 @ F,0,0,1,0,0,0,1 | F,0,0,1,0,0,0,1 @ F,0,0,1,0,0,0,1 @ F,0,0,1,0,0,0,1 @ F,0,0,1,0,0,0,1 @ F,0,0,1,0,0,0,1 @ F,0,0,1,0,0,0,1 @ F,0,0,1,0,0,0,1 @ F,0,0,1,0,0,0,1 @ F,0,0,1,0,0,0,1 @ F,0,0,1,0,0,0,1 @ F,0,0,1,0,0,0,1 @ F,0,0,1,0,0,0,1 @ F,0,0,1,0,0,0,1 @ F,0,0,1,0,0,0,1 @ F,0,0,1,0,0,0,1 @ F,0,0,1,0,0,0,1 @ F,0,0,1,0,0,0,1 @ F,0,0,1,0,0,0,1 @ F,0,0,1,0,0,0,1 @ F,0,0,1,0,0,0,1 @ F,0,0,1,0,0,0,1 @ F,0,0,1,0,0,0,1 @ F,0,0,1,0,0,0,1 @ F,0,0,1,0,0,0,1 @ F,0,0,1,0,0,0,1 @ F,0,0,1,0,0,0,1 @ F,0,0,1,0,0,0,1 | F,0,0,1,0,0,0,1 @ F,0,0,1,0,0,0,1 @ F,0,0,1,0,0,0,1 @ F,0,0,1,0,0,0,1 @ F,0,0,1,0,0,0,1 @ F,0,0,1,0,0,0,1 @ F,0,0,1,0,0,0,1 @ F,0,0,1,0,0,0,1 @ F,0,0,1,0,0,0,1 @ F,0,0,1,0,0,0,1 @ F,0,0,1,0,0,0,1 @ F,0,0,1,0,0,0,1 @ F,0,0,1,0,0,0,1 @ F,0,0,1,0,0,0,1 @ F,0,0,1,0,0,0,1 @ F,0,0,1,0,0,0,1 @ F,0,0,1,0,0,0,1 @ F,0,0,1,0,0,0,1 @ F,0,0,1,0,0,0,1 @ F,0,0,1,0,0,0,1 @ F,0,0,1,0,0,0,1 @ F,0,0,1,0,0,0,1 @ F,0,0,1,0,0,0,1 @ F,0,0,1,0,0,0,1 @ F,0,0,1,0,0,0,1 @ F,0,0,1,0,0,0,1 @ F,0,0,1,0,0,0,1 @ F,0,0,1,0,0,0,1"
       radius="0"
       unit="px"
       method="auto"
       mode="F"
       chamfer_steps="1"
       flexible="false"
       use_knot_distance="true"
       apply_no_radius="true"
       apply_with_radius="true"
       only_selected="false"
       hide_knots="false" />
    <inkscape:path-effect
       effect="fillet_chamfer"
       id="path-effect2"
       is_visible="true"
       lpeversion="1"
       nodesatellites_param=""
       radius="0"
       unit="px"
       method="auto"
       mode="F"
       chamfer_steps="1"
       flexible="false"
       use_knot_distance="true"
       apply_no_radius="true"
       apply_with_radius="true"
       only_selected="false"
       hide_knots="false" />
    <inkscape:path-effect
       effect="fillet_chamfer"
       id="path-effect137"
       is_visible="true"
       lpeversion="1"
       nodesatellites_param="F,0,0,1,0,0,0,1 @ F,0,0,1,0,0,0,1 @ F,0,0,1,0,0.28867147,0,1 @ F,0,0,1,0,0,0,1 @ F,0,0,1,0,0,0,1 @ F,0,0,1,0,0,0,1 @ F,0,0,1,0,0,0,1 @ F,0,0,1,0,0,0,1 @ F,0,0,1,0,1.0580525,0,1 @ F,0,0,1,0,0,0,1 @ F,0,1,1,0,0.28867147,0,1 @ F,0,0,1,0,0,0,1 @ F,0,0,1,0,0,0,1 @ F,0,0,1,0,0,0,1 @ F,0,0,1,0,0,0,1 @ F,0,0,1,0,0,0,1 @ F,0,0,1,0,0,0,1"
       radius="0"
       unit="px"
       method="auto"
       mode="F"
       chamfer_steps="1"
       flexible="false"
       use_knot_distance="true"
       apply_no_radius="true"
       apply_with_radius="true"
       only_selected="false"
       hide_knots="false" />
  </defs>
  <g
     inkscape:label="Shelfspace-Icons"
     inkscape:groupmode="layer"
     id="layer1">
    <g
       inkscape:groupmode="layer"
       id="layer2"
       inkscape:label="Heart"
       style="display:none">
      <path
         id="rect1"
         style="display:inline;fill:none;stroke:#000000;stroke-width:2.5;stroke-dasharray:none;stroke-opacity:1"
         d="M 16.151742,9.2703385 A 9.203746,9.2036941 0 0 0 9.6444069,11.96528 l -0.01958,0.01958 a 9.203746,9.2036941 0 0 0 10e-7,13.016302 l 1.3393131,1.339314 11.748765,11.748766 a 1.819736,1.8197256 0 0 1 0.0016,0.0016 l 0.197391,0.197389 a 1.5393921,1.5393835 0 0 0 2.176182,0 l 0.199024,-0.199022 11.748763,-11.748768 1.339314,-1.339313 a 9.203746,9.2036941 0 0 0 10e-7,-13.016302 l -0.01958,-0.01958 a 9.203746,9.2036941 0 0 0 -13.016303,2e-6 L 24.000048,13.304614 22.660731,11.9653 A 9.203746,9.2036941 0 0 0 16.151742,9.2703364 Z"
         inkscape:label="Heart"
         inkscape:export-filename="heart-line.svg"
         inkscape:export-xdpi="96"
         inkscape:export-ydpi="96" />
    </g>
    <g
       inkscape:groupmode="layer"
       id="layer3"
       inkscape:label="Comment"
       style="display:none;fill:none"
       transform="matrix(0.74468107,0,0,0.74468107,6.1276544,6.1276545)"
       inkscape:export-filename="comment-line.svg"
       inkscape:export-xdpi="96"
       inkscape:export-ydpi="96">
      <path
         id="path4"
         style="display:inline;fill:#000000;stroke:#000000;stroke-width:3.35714;stroke-dasharray:none"
         d="M 22.617356,3.8375007 C 11.508428,3.8378336 2.5029447,12.843318 2.5026118,23.952245 2.5029432,35.004884 11.419219,44.063442 22.450473,44.154393 l 0.08084,0.0026 c 0,0 23.777985,0.03888 23.069109,-0.09 L 40.660786,34.92117 c -0.307683,-0.569682 -0.294452,-1.486544 -0.0079,-2.067038 1.361963,-2.758996 2.079071,-5.804137 2.079209,-8.901885 C 42.731766,12.843318 33.726285,3.8378338 22.617356,3.8375007 Z"
         sodipodi:nodetypes="cccccccc"
         inkscape:label="Comment"
         inkscape:export-filename="comment-fill.svg"
         inkscape:export-xdpi="96"
         inkscape:export-ydpi="96"
         inkscape:path-effect="#path-effect4"
         inkscape:original-d="M 22.617356,3.8375007 C 11.508428,3.8378336 2.5029447,12.843318 2.5026118,23.952245 2.5029432,35.004884 11.419219,44.063442 22.450473,44.154393 l 0.08084,0.0026 c 0,0 23.777985,0.03888 23.069109,-0.09 L 40.103676,33.88967 C 41.821409,30.86676 42.731945,27.442903 42.7321,23.952247 42.731766,12.843318 33.726285,3.8378338 22.617356,3.8375007 Z" />
    </g>
    <g
       inkscape:groupmode="layer"
       id="layer4"
       inkscape:label="Logo"
       style="display:none">
      <g
         id="g11"
         inkscape:label="Logo"
         transform="translate(4.5246161e-8,-5.4554189)">
        <circle
           style="fill:#000000;stroke:#000000;stroke-width:4.01365;stroke-dasharray:none;stroke-opacity:1"
           id="path6"
           cx="24"
           cy="15.674343"
           r="5.8582649"
           inkscape:label="Head" />
        <g
           id="g10"
           inkscape:label="Book"
           transform="matrix(1.0709377,0,0,1.0567106,-3.5714166,5.1271794)">
          <path
             id="rect8"
             style="fill:#b3b3b3;stroke-width:9.22205"
             d="m -13.401248,19.084375 c 0.829416,-0.248675 1.42933,0.156157 1.42933,1.072188 v 18.876953 c 0,1.127422 -0.908911,2.589653 -2.036333,3.276875 l -9.660793,5.887734 v 0.01563 c 0,1.127422 -0.90686,2.034063 -2.034282,2.034063 l -1.326796,7.8e-5 -1.326795,0.808672 c -1.127421,0.687221 -2.036333,0.333984 -2.036333,-0.793438 V 50.2475 l -9.660793,10e-4 c -1.127422,0 -2.034282,-0.908828 -2.034282,-2.03625 V 29.335313 c 0,-1.127422 0.90686,-2.034063 2.034282,-2.034063 l 13.023921,-6.25e-4 13.021871,-7.9375 c 0.211391,-0.128854 0.4156,-0.221364 0.607003,-0.27875 z"
             transform="matrix(-0.95242415,0.30477573,0,1,0,0)" />
          <path
             id="rect7"
             style="stroke-width:9.22205"
             d="m -11.301343,19.444375 c 0.829416,-0.248674 1.4272791,0.156782 1.4272791,1.072813 v 18.876953 c 0,1.127421 -0.9068611,2.589028 -2.0342831,3.27625 l -14.348665,8.746172 c -0.273867,0.166936 -0.53504,0.271748 -0.77311,0.319609 -0.238071,0.09726 -0.499239,0.151641 -0.773109,0.151641 l -14.350716,7.03e-4 c -1.127421,0 -2.034283,-0.908828 -2.034283,-2.03625 V 30.975313 c 0,-1.127422 0.906862,-2.034063 2.034283,-2.034063 l 14.350716,-7.03e-4 c 0.273868,0 0.535039,0.05384 0.773109,0.151094 0.238071,-0.242373 0.499241,-0.455407 0.77311,-0.622344 l 14.348665,-8.746172 c 0.211392,-0.128854 0.4156,-0.221364 0.607004,-0.27875 z"
             transform="matrix(-0.95242415,0.30477573,0,1,0,0)" />
        </g>
      </g>
    </g>
    <g
       inkscape:groupmode="layer"
       id="layer5"
       inkscape:label="Gear"
       style="display:inline">
      <path
         id="path51"
         style="display:none;stroke-width:7.69904"
         inkscape:label="Gear"
         d="m 10.40755,10.750718 0.0041,0.0041 a 2.5861072,2.5861072 25.125329 0 0 -0.238924,3.119832 l 2.248378,3.477529 a 12.744471,12.744471 0 0 0 -0.240306,0.571762 l -0.0014,0.0014 -4.0838176,0.876978 A 2.5860961,2.5860961 0 0 0 6.9106861,19.407252 2.5860961,2.5860961 0 0 0 6.0585672,21.1764 h -0.00552 l -0.00138,0.156061 0.00138,2.282905 -0.00138,0.156061 0.00691,-0.0014 a 2.5860961,2.5860961 0 0 0 2.0356942,2.375437 l 4.0133836,0.861786 a 12.744471,12.744471 0 0 0 0.0014,0.0014 12.744471,12.744471 0 0 0 0.270689,0.668437 l -2.269094,3.509294 a 2.5860961,2.5860961 0 0 0 0.238924,3.119832 l -0.0041,0.0041 0.110486,0.110486 1.614468,1.614468 0.109104,0.109104 0.0041,-0.0041 a 2.5860961,2.5860961 0 0 0 3.119832,0.238925 l 3.447146,-2.229044 a 12.744471,12.744471 0 0 0 0.664293,0.280357 12.744471,12.744471 0 0 0 0.0014,0.0014 l 0.876978,4.08658 a 2.5861072,2.5861072 25.125329 0 0 2.374056,2.037075 l 0.0014,0.0069 h 0.15468 l 2.282905,-0.0014 0.156061,0.0014 v -0.0055 a 2.5861072,2.5861072 25.125329 0 0 2.374056,-2.037076 l 0.863167,-4.014764 a 12.744471,12.744471 0 0 0 0.575905,-0.230638 l 3.541059,2.28981 a 2.5860961,2.5860961 0 0 0 3.118451,-0.237544 l 0.0041,0.0041 0.110486,-0.110486 1.614468,-1.614468 0.109104,-0.109105 -0.0041,-0.0041 a 2.5860961,2.5860961 0 0 0 0.238925,-3.119832 l -2.209709,-3.416762 0.0014,-0.0014 a 12.744471,12.744471 0 0 0 0.32317,-0.756826 l 4.08658,-0.876978 A 2.5861072,2.5861072 25.125329 0 0 42.04652,23.94684 l 0.0069,-0.0014 v -0.154679 l -0.0014,-2.282905 0.0014,-0.156061 h -0.0055 A 2.5861072,2.5861072 25.125329 0 0 40.010741,18.97774 l -4.013383,-0.861786 -0.0014,-0.0014 a 12.744471,12.744471 0 0 0 -0.27069,-0.668437 l 2.269095,-3.509294 A 2.5861072,2.5861072 25.125329 0 0 37.755457,10.81701 l 0.0041,-0.0041 -0.110486,-0.110485 -1.614468,-1.6144684 -0.109105,-0.1091043 -0.0041,0.00414 A 2.5861072,2.5861072 25.125329 0 0 32.801567,8.7440267 L 29.354421,10.97307 a 12.744471,12.744471 0 0 0 -0.664294,-0.280356 12.744471,12.744471 0 0 0 -0.0014,-0.0014 L 27.811768,6.6047525 A 2.5860961,2.5860961 0 0 0 25.437712,4.5676773 v -0.00552 l -0.15606,-0.00138 -2.282906,0.00138 -0.15606,-0.00138 0.0014,0.00691 a 2.5860961,2.5860961 0 0 0 -1.77191,0.8521189 2.5860961,2.5860961 0 0 0 -0.603527,1.1835752 l -0.861786,4.0133836 a 12.744471,12.744471 0 0 0 -0.763731,0.313502 L 15.365584,8.6818787 a 2.5861072,2.5861072 25.125329 0 0 -3.119832,0.2389247 l -0.0041,-0.00414 -0.109104,0.1091044 -1.615849,1.6158492 z m 8.735255,6.901197 a 6.94384,6.94384 0 0 1 9.819393,0 6.94384,6.94384 0 0 1 0,9.819393 6.94384,6.94384 0 0 1 -9.819393,0 6.94384,6.94384 0 0 1 0,-9.819393 z"
         transform="rotate(45,22.289962,23.217431)" />
    </g>
    <g
       inkscape:groupmode="layer"
       id="layer6"
       inkscape:label="Share"
       style="display:inline">
      <g
         id="path117"
         style="display:none;opacity:1;fill:#000000;stroke-width:2.5;stroke-dasharray:none">
        <g
           id="path129"
           style="display:inline;opacity:1;fill:#000000;stroke-width:1.03914;stroke-dasharray:none"
           transform="matrix(2.4058321,0,0,2.4058321,-29.981901,-38.683531)">
          <g
             id="path135"
             style="display:inline;opacity:1;fill:#000000;stroke-width:0.932836;stroke-dasharray:none"
             transform="matrix(1.1139597,0,0,1.1139597,-0.83401363,-3.9571544)">
            <path
               style="baseline-shift:baseline;display:inline;overflow:visible;fill:#000000;stroke:#000000;stroke-width:0.932836;stroke-linecap:round;stroke-miterlimit:12;stroke-dasharray:none;stroke-opacity:1;enable-background:accumulate;stop-color:#000000;stop-opacity:1"
               d="m 21.765706,21.431485 c -0.538374,-0.04246 -0.993648,0.527317 -0.995985,1.246477 l -0.0028,0.955564 c -4.74e-4,0.159428 -0.130913,0.285377 -0.288931,0.306285 -0.166796,0.02207 -0.101351,0.06023 -0.527788,0.125203 -1.106955,0.16864 -2.269559,0.579588 -3.250411,1.507437 -1.556114,1.472025 -1.364802,2.743945 -1.470661,4.986571 -0.04759,0.997755 0.722778,1.845124 1.720542,1.892522 0.998591,0.04757 1.846322,-0.72413 1.892522,-1.722786 0.03945,-0.835722 0.01492,-1.326892 -0.0044,-1.645936 -0.03375,-0.556264 0.682553,-1.236288 1.246528,-1.365552 0.12931,-0.02964 0.26715,-0.05616 0.411015,-0.07807 0.04067,-0.0062 0.06883,-0.01205 0.08774,-0.01758 0.0992,-0.02902 0.170664,0.05335 0.170176,0.212781 l -0.0028,0.919672 c -0.0028,0.930289 0.729438,1.537675 1.354899,1.123849 l 4.028183,-3.236205 c 0.561068,-0.371659 0.564126,-1.437151 0.0052,-1.811766 L 22.132241,21.56309 C 22.018152,21.4864 21.893473,21.441614 21.76585,21.431488 Z"
               id="path1" />
          </g>
          <g
             id="g133"
             style="fill:#000000;stroke-width:1.03914;stroke-dasharray:none" />
        </g>
      </g>
      <path
         id="path5"
         style="display:inline;fill:none;stroke:#000000;stroke-width:2.5;stroke-dasharray:none"
         d="M 23 9.0292969 A 1.8682811 1.8682811 0 0 0 21.1875 10.451172 L 20.154297 14.652344 A 10.317189 10.317189 0 0 0 20.109375 14.669922 L 16.410156 12.429688 A 1.8682811 1.8682811 0 0 0 14.121094 12.708984 L 13.90625 12.921875 L 12.921875 13.90625 L 12.707031 14.121094 A 1.8682811 1.8682811 0 0 0 12.431641 16.408203 L 14.595703 19.984375 A 10.317189 10.317189 0 0 0 14.505859 20.191406 L 10.451172 21.1875 A 1.8682811 1.8682811 0 0 0 9.0292969 23.001953 L 9.0292969 23.304688 L 9.0292969 24.695312 L 9.0292969 24.998047 A 1.8682811 1.8682811 0 0 0 10.451172 26.8125 L 14.306641 27.759766 A 10.317189 10.317189 0 0 0 14.480469 28.205078 L 12.431641 31.591797 A 1.8682811 1.8682811 0 0 0 12.707031 33.878906 L 12.921875 34.09375 L 13.90625 35.078125 L 14.121094 35.291016 A 1.8682811 1.8682811 0 0 0 16.410156 35.570312 L 19.675781 33.591797 A 10.317189 10.317189 0 0 0 20.277344 33.847656 L 21.1875 37.548828 A 1.8682811 1.8682811 0 0 0 23 38.970703 L 23.302734 38.970703 L 24.697266 38.970703 L 25 38.970703 A 1.8682811 1.8682811 0 0 0 26.8125 37.548828 L 27.722656 33.847656 A 10.317189 10.317189 0 0 0 28.324219 33.591797 L 28.326172 33.591797 L 31.589844 35.570312 A 1.8682811 1.8682811 0 0 0 33.878906 35.291016 L 34.09375 35.078125 L 35.078125 34.09375 L 35.292969 33.878906 A 1.8682811 1.8682811 0 0 0 35.568359 31.591797 L 33.519531 28.205078 A 10.317189 10.317189 0 0 0 33.693359 27.759766 L 37.548828 26.8125 A 1.8682811 1.8682811 0 0 0 38.970703 24.998047 L 38.970703 24.695312 L 38.970703 23.304688 L 38.970703 23.001953 A 1.8682811 1.8682811 0 0 0 37.548828 21.1875 L 33.494141 20.189453 A 10.317189 10.317189 0 0 0 33.404297 19.984375 L 35.568359 16.408203 A 1.8682811 1.8682811 0 0 0 35.292969 14.121094 L 35.078125 13.90625 L 34.09375 12.921875 L 33.878906 12.708984 A 1.8682811 1.8682811 0 0 0 31.589844 12.429688 L 27.890625 14.669922 A 10.317189 10.317189 0 0 0 27.845703 14.652344 L 26.8125 10.451172 A 1.8682811 1.8682811 0 0 0 25 9.0292969 L 24.697266 9.0292969 L 23.302734 9.0292969 L 23 9.0292969 z M 24 20.273438 A 3.7267475 3.7267475 0 0 1 27.726562 24 A 3.7267475 3.7267475 0 0 1 24 27.726562 A 3.7267475 3.7267475 0 0 1 20.273438 24 A 3.7267475 3.7267475 0 0 1 24 20.273438 z " />
      <circle
         style="fill:none;stroke:#000000;stroke-width:2.5;stroke-dasharray:none;stroke-opacity:1"
         id="path27"
         cx="24"
         cy="24"
         r="3.7267475" />
    </g>
  </g>
</svg>
